<svg xmlns="http://www.w3.org/2000/svg" viewBox="0 0 64 64" role="img" aria-label="IdeaHome favicon">
  <defs>
    <linearGradient id="bg" x1="0" x2="1" y1="0" y2="1">
      <stop offset="0" stop-color="#0f766e"/>
      <stop offset="1" stop-color="#1f2937"/>
    </linearGradient>
  </defs>
  <rect width="64" height="64" rx="14" fill="url(#bg)"/>
  <path d="M32 12c-7.2 0-13 5.8-13 13 0 4.8 2.6 9 6.5 11.2V42c0 2.2 1.8 4 4 4h5c2.2 0 4-1.8 4-4v-5.8C42.4 34 45 29.8 45 25c0-7.2-5.8-13-13-13zm-3.5 33h7v3h-7zm.8-15.7c-2.4-1.2-4.1-3.7-4.1-6.6 0-4.1 3.3-7.4 7.4-7.4 4.1 0 7.4 3.3 7.4 7.4 0 2.9-1.7 5.4-4.1 6.6l-.9.5V39h-4.7v-9.2z" fill="#e5e7eb"/>
  <text x="32" y="58" text-anchor="middle" font-size="10" font-family="Arial, Helvetica, sans-serif" font-weight="700" fill="#f9fafb">IH</text>
</svg>
